HIERARCHY
ROOT Hips
{
	OFFSET 0.000000 0.000000 0.000000
	CHANNELS 6 Xposition Yposition Zposition Zrotation Yrotation Xrotation 
	JOINT LHipJoint
	{
		OFFSET 0.000000 0.000000 0.000000
		CHANNELS 3 Zrotation Yrotation Xrotation
		JOINT LeftUpLeg
		{
			OFFSET 1.363060 -1.794630 0.839290
			CHANNELS 3 Zrotation Yrotation Xrotation
			JOINT LeftLeg
			{
				OFFSET 2.448110 -6.726130 0.000000
				CHANNELS 3 Zrotation Yrotation Xrotation
				JOINT LeftFoot
				{
					OFFSET 2.562200 -7.039590 0.000000
					CHANNELS 3 Zrotation Yrotation Xrotation
					JOINT LeftToeBase
					{
						OFFSET 0.157640 -0.433110 2.322550
						CHANNELS 3 Zrotation Yrotation Xrotation
						End Site
						{
							OFFSET 0.000000 0.000000 0.000000
						}
					}
				}
			}
		}
	}
	JOINT RHipJoint
	{
		OFFSET 0.000000 0.000000 0.000000
		CHANNELS 3 Zrotation Yrotation Xrotation
		JOINT RightUpLeg
		{
			OFFSET -1.305520 -1.794630 0.839290
			CHANNELS 3 Zrotation Yrotation Xrotation
			JOINT RightLeg
			{
				OFFSET -2.542530 -6.985550 0.000000
				CHANNELS 3 Zrotation Yrotation Xrotation
				JOINT RightFoot
				{
					OFFSET -2.568260 -7.056230 0.000000
					CHANNELS 3 Zrotation Yrotation Xrotation
					JOINT RightToeBase
					{
						OFFSET -0.164730 -0.452590 2.363150
						CHANNELS 3 Zrotation Yrotation Xrotation
						End Site
						{
							OFFSET 0.000000 0.000000 0.000000
						}
					}
				}
			}
		}
	}
	JOINT LowerBack
	{
		OFFSET 0.000000 0.000000 0.000000
		CHANNELS 3 Zrotation Yrotation Xrotation
		JOINT Spine
		{
			OFFSET 0.028270 2.035590 -0.193380
			CHANNELS 3 Zrotation Yrotation Xrotation
			JOINT Spine1
			{
				OFFSET 0.056720 2.048850 -0.042750
				CHANNELS 3 Zrotation Yrotation Xrotation
				JOINT Neck
				{
					OFFSET 0.000000 0.000000 0.000000
					CHANNELS 3 Zrotation Yrotation Xrotation
					JOINT Neck1
					{
						OFFSET -0.054170 1.746240 0.172020
						CHANNELS 3 Zrotation Yrotation Xrotation
						JOINT Head
						{
							OFFSET 0.104070 1.761360 -0.123970
							CHANNELS 3 Zrotation Yrotation Xrotation
							End Site
							{
								OFFSET 0.000000 0.000000 0.000000
							}
						}
					}
				}
				JOINT LeftShoulder
				{
					OFFSET 0.000000 0.000000 0.000000
					CHANNELS 3 Zrotation Yrotation Xrotation
					JOINT LeftArm
					{
						OFFSET 3.362410 1.200890 -0.311210
						CHANNELS 3 Zrotation Yrotation Xrotation
						JOINT LeftForeArm
						{
							OFFSET 4.983000 -0.000000 -0.000000
							CHANNELS 3 Zrotation Yrotation Xrotation
							JOINT LeftHand
							{
								OFFSET 3.483560 -0.000000 -0.000000
								CHANNELS 3 Zrotation Yrotation Xrotation
								JOINT LeftFingerBase
								{
									OFFSET 0.000000 0.000000 0.000000
									CHANNELS 3 Zrotation Yrotation Xrotation
									JOINT LeftHandIndex1
									{
										OFFSET 0.715260 -0.000000 -0.000000
										CHANNELS 3 Zrotation Yrotation Xrotation
										End Site
										{
											OFFSET 0.000000 0.000000 0.000000
										}
									}
								}
								JOINT LThumb
								{
									OFFSET 0.000000 0.000000 0.000000
									CHANNELS 3 Zrotation Yrotation Xrotation
									End Site
									{
										OFFSET 0.000000 0.000000 0.000000
									}
								}
							}
						}
					}
				}
				JOINT RightShoulder
				{
					OFFSET 0.000000 0.000000 0.000000
					CHANNELS 3 Zrotation Yrotation Xrotation
					JOINT RightArm
					{
						OFFSET -3.136600 1.374050 -0.404650
						CHANNELS 3 Zrotation Yrotation Xrotation
						JOINT RightForeArm
						{
							OFFSET -5.241900 -0.000000 -0.000000
							CHANNELS 3 Zrotation Yrotation Xrotation
							JOINT RightHand
							{
								OFFSET -3.444170 -0.000000 -0.000000
								CHANNELS 3 Zrotation Yrotation Xrotation
								JOINT RightFingerBase
								{
									OFFSET 0.000000 0.000000 0.000000
									CHANNELS 3 Zrotation Yrotation Xrotation
									JOINT RightHandIndex1
									{
										OFFSET -0.622530 -0.000000 -0.000000
										CHANNELS 3 Zrotation Yrotation Xrotation
										End Site
										{
											OFFSET 0.000000 0.000000 0.000000
										}
									}
								}
								JOINT RThumb
								{
									OFFSET 0.000000 0.000000 0.000000
									CHANNELS 3 Zrotation Yrotation Xrotation
									End Site
									{
										OFFSET 0.000000 0.000000 0.000000
									}
								}
							}
						}
					}
				}
			}
		}
	}
}
MOTION
Frames: 6
Frame Time: 0.008333
6.443647 16.063726 -11.814470 3.795868 13.563942 19.172148 -3.487397 0.814067 1.623124 -11.525350 -12.782279 -19.288462 7.783932 16.109652 52.743121 -1.866185 -34.317401 3.653388 0.240400 3.155200 8.711200 -0.202363 -1.066733 2.141905 -12.750780 24.246247 -79.732557 -15.941800 -19.342767 77.277262 -0.091819 20.055273 2.041653 -0.190100 2.808200 -7.745200 -2.785254 4.648231 20.320355 0.712324 5.486740 16.804846 1.762055 2.922303 -5.232241 -4.160475 -10.314078 -27.056373 8.925759 -12.192015 21.782886 -0.731600 -3.730300 14.243100 2.201075 -10.250559 0.496523 -72.984955 -19.997371 32.403158 30.425881 -32.212730 -10.166888 -0.288383 -0.648121 -23.497849 27.401000 7.559817 4.251800 -7.125000 0.000000 0.000000 0.933000 39.087100 -0.135900 -0.247163 14.798520 1.425612 32.804587 39.843442 5.456269 -20.336360 18.329921 -5.258025 2.256779 -1.360505 7.975165 -34.565995 -11.893411 7.693100 7.125000 0.000000 0.000000 -9.050900 -42.648200 -0.529900 
6.430054 15.947695 -11.521334 3.995175 13.800504 18.942445 -3.494941 0.861827 1.701900 -11.552035 -12.455186 -17.810475 7.707419 16.095733 52.561019 -2.030636 -34.831348 4.234186 0.239700 3.150800 8.698900 -0.207323 -1.093976 2.135507 -13.211201 24.378088 -80.250843 -16.317880 -19.410446 78.390595 -0.092790 19.934615 2.160622 -0.181100 2.740700 -7.557800 -3.008694 4.669622 19.992281 0.566996 5.476115 16.573510 1.938485 2.885796 -5.179812 -4.256766 -10.425496 -27.061248 9.143113 -12.371253 22.144254 -0.629500 -3.749300 14.413600 2.331139 -10.151857 0.564247 -71.229046 -21.651787 31.509169 32.502245 -34.067925 -11.537722 -0.219958 -0.635122 -25.202639 28.039370 6.679429 3.891800 -7.125000 0.000000 0.000000 1.476700 38.150900 -0.249100 -0.280029 14.695459 1.516808 32.324375 38.674426 6.894678 -21.046115 19.355266 -5.559190 2.251260 -1.174033 6.502125 -34.778117 -12.174464 8.042400 7.125000 0.000000 0.000000 -9.216000 -43.179800 -0.417800 
6.411023 15.814575 -11.223732 4.264129 14.074454 18.788485 -3.500431 0.912015 1.781655 -11.549441 -12.237922 -16.259535 7.619115 16.081748 52.375603 -2.280821 -35.507965 5.332407 0.277600 3.388600 9.362500 -0.210960 -1.137639 2.145451 -13.989016 24.483962 -81.072384 -16.880447 -19.491593 80.025583 -0.132681 20.051961 0.896567 -0.265500 3.314500 -9.155700 -3.360185 4.626428 19.643126 0.434626 5.351420 16.303391 2.228653 2.795950 -5.169334 -4.696539 -10.541438 -27.017101 9.636018 -12.462704 22.507589 -0.342200 -3.731200 14.617600 2.471025 -10.041427 0.640000 -69.307305 -23.310788 30.444584 35.010858 -36.150940 -13.277960 -0.168779 -0.644595 -27.377337 29.314540 6.361806 3.930600 -7.125000 0.000000 0.000000 2.562100 37.905800 -0.447800 -0.318669 14.608051 1.594653 31.842821 37.626091 8.615267 -21.788163 20.380074 -5.877488 2.237845 -0.980426 4.529603 -34.823382 -12.287498 8.217800 7.125000 0.000000 0.000000 -9.210300 -43.480100 -0.348600 
6.390341 15.667570 -10.921663 4.548691 14.427044 18.646899 -3.496970 0.966367 1.861013 -11.549155 -12.010828 -14.705239 7.558133 16.071033 52.190266 -2.495064 -36.334577 5.256424 0.243000 3.172100 8.758300 -0.215947 -1.179438 2.152764 -14.673239 24.424656 -81.654223 -17.407819 -19.577292 81.607536 0.032066 21.303871 2.298244 -0.043800 1.350400 -3.713400 -3.653421 4.555159 19.355189 0.305638 5.203956 16.015320 2.479455 2.698972 -5.189829 -5.073814 -10.615937 -26.926959 10.074174 -12.517864 22.696002 -0.088700 -3.718700 14.721200 2.619219 -9.946766 0.717608 -67.198511 -25.129973 29.229104 37.760556 -38.207251 -15.261233 -0.097855 -0.644225 -28.889263 30.073152 5.970211 3.835900 -7.125000 0.000000 0.000000 3.175600 37.543400 -0.583500 -0.358688 14.509559 1.673321 31.229396 36.605566 10.206857 -22.502304 21.341237 -6.152218 2.170715 -0.795721 2.841034 -33.996588 -12.246613 8.036400 7.125000 0.000000 0.000000 -8.346700 -43.509800 -0.309300 
6.366747 15.507651 -10.618138 4.821304 14.833527 18.609802 -3.492483 1.015957 1.934909 -11.501695 -11.703147 -13.268710 7.447928 16.024199 51.817193 -2.638204 -36.986849 4.826369 0.183700 2.760700 7.613300 -0.219285 -1.215958 2.166828 -15.243091 24.022460 -82.698712 -17.989277 -19.653201 83.312911 0.034940 21.393502 2.089061 -0.092400 1.961000 -5.397800 -3.864303 4.483564 19.099033 0.097270 5.074974 15.666458 2.645375 2.614629 -5.268202 -5.328471 -10.683278 -26.822667 10.514523 -12.618187 22.752729 0.134000 -3.725500 14.752300 2.772656 -9.856215 0.799318 -64.721614 -27.043430 28.109544 40.699297 -40.166761 -17.477509 -0.038866 -0.629571 -29.662343 31.254594 5.732907 3.880400 -7.125000 0.000000 0.000000 4.143000 37.371500 -0.779400 -0.388058 14.399699 1.748850 30.936277 35.625765 11.415507 -23.182502 22.252103 -6.481551 2.111883 -0.700462 1.912546 -34.117303 -12.036812 7.958600 7.125000 0.000000 0.000000 -8.384200 -43.360000 -0.341900 
6.341016 15.384144 -10.297233 5.063503 15.412881 18.602121 -3.494926 1.064558 2.032577 -11.323181 -11.415132 -11.568526 7.141346 15.861193 50.904373 -2.852859 -37.498372 5.886863 0.255800 3.254300 8.987600 -0.210005 -1.256990 2.181961 -15.540308 23.423270 -83.658009 -18.521266 -19.719262 84.872186 0.035425 21.449606 1.917936 -0.107700 2.116300 -5.827100 -4.189931 4.295296 18.790404 0.106074 4.762848 15.360517 3.015388 2.445549 -5.290394 -5.545722 -10.560616 -26.910856 10.666858 -12.393214 22.807439 0.279000 -3.634200 14.791300 2.921995 -9.799269 0.874328 -62.187067 -28.993841 26.454680 43.694608 -41.924931 -19.792963 0.026572 -0.625857 -29.594945 31.813642 6.135959 4.231700 -7.125000 0.000000 0.000000 4.575400 37.925000 -0.799000 -0.444429 14.304910 1.792435 29.927276 34.696819 13.090004 -23.903200 23.247202 -6.844878 2.066068 -0.548796 0.419119 -33.978867 -12.051685 7.997400 7.125000 0.000000 0.000000 -8.198200 -43.501300 -0.305400 
